# xmcd
#
# Track frame offsets:
#	150
#	111801
#	232520
#
# Disc length: 4595 seconds
#
# Revision: 0
# Processed by: cddbd v1.5.1PL0 Copyright (c) Steve Scherf et al.
# Submitted via: audiograbber 1.83.01
#
DISCID=1411f103
DTITLE=Virus Booking - DJ's Mix
DYEAR=2004
DGENRE=Club-House
TTITLE0=Promo mix Dj Binokl
TTITLE1=Promo mix DJ Chief MC
TTITLE2=Promo mix DJ Anna Lee
EXTD=
EXTT0=
EXTT1=
EXTT2=
PLAYORDER=
